<?xml version="1.0" encoding="UTF-8"?>
<svg width="24px" height="24px" viewBox="0 0 24 24" version="1.1" xmlns="http://www.w3.org/2000/svg" xmlns:xlink="http://www.w3.org/1999/xlink">
    <title>btn_essay_close</title>
    <g id="页面-1" stroke="none" stroke-width="1" fill="none" fill-rule="evenodd">
        <g id="图标资源下载" transform="translate(-853.000000, -609.000000)">
            <g id="btn_essay_close" transform="translate(853.000000, 609.000000)">
                <rect id="矩形" x="0" y="0" width="24" height="24"></rect>
                <path d="M13.2661835,12.00478 L18.7322655,17.470862 C19.0805925,17.8191889 19.0805925,18.3839385 18.7322655,18.7322655 C18.3839385,19.0805925 17.8191889,19.0805925 17.470862,18.7322655 L12.00478,13.2661835 L6.53869801,18.7322655 C6.19037105,19.0805925 5.62562145,19.0805925 5.27729448,18.7322655 C4.92896751,18.3839385 4.92896751,17.8191889 5.27729448,17.470862 L10.7433765,12.00478 L5.27729448,6.53869801 C4.92896751,6.19037105 4.92896751,5.62562145 5.27729448,5.27729448 C5.62562145,4.92896751 6.19037105,4.92896751 6.53869801,5.27729448 L12.00478,10.7433765 L17.470862,5.27729448 C17.8191889,4.92896751 18.3839385,4.92896751 18.7322655,5.27729448 C19.0805925,5.62562145 19.0805925,6.19037105 18.7322655,6.53869801 L13.2661835,12.00478 Z" id="Path" fill="#BFC2CB" fill-rule="nonzero"></path>
            </g>
        </g>
    </g>
</svg>