<?xml version="1.0" encoding="UTF-8"?>
<svg width="46px" height="46px" viewBox="0 0 46 46" version="1.1" xmlns="http://www.w3.org/2000/svg" xmlns:xlink="http://www.w3.org/1999/xlink">
    <title>btn_my messages</title>
    <g id="页面-1" stroke="none" stroke-width="1" fill="none" fill-rule="evenodd">
        <g id="图标资源下载" transform="translate(-148.000000, -1016.000000)">
            <g id="btn_my-messages" transform="translate(148.000000, 1016.000000)">
                <rect id="矩形" fill-opacity="0" fill="#000000" x="0" y="0" width="46" height="46"></rect>
                <path d="M28.8451835,38.5 C28.7843989,39.8376878 28.1523935,41.0390276 27.1832265,41.9241141 C26.1114673,42.9028924 24.6293528,43.5 23,43.5 C21.3706472,43.5 19.8885327,42.9028924 18.8167735,41.9241141 C17.8476065,41.0390276 17.2156011,39.8376878 17.1548165,38.5 L17.1548165,38.5 Z" id="形状" stroke="#FC6627" stroke-width="3" fill-rule="nonzero"></path>
                <rect id="矩形" fill="#3A3948" x="20.9" y="1" width="4.2" height="4.19047619" rx="2"></rect>
                <path d="M23.0012854,4.5952381 C27.5902236,4.5952381 31.7514794,6.45573822 34.7654675,9.45971348 C37.7772507,12.4614911 39.643784,16.6057085 39.643784,21.177465 L39.643784,21.177465 L39.643784,37.6746697 L42.200404,37.6746697 L3.79959601,38.2619048 L6.35621595,38.1190476 L6.35621595,21.177465 C6.35621595,16.6058983 8.22323558,12.461862 11.2353933,9.46013644 C14.2500505,6.45592007 18.4120981,4.5952381 23.0012854,4.5952381 Z" id="形状" stroke="#3A3948" stroke-width="3" fill-rule="nonzero"></path>
            </g>
        </g>
    </g>
</svg>