<?xml version="1.0" encoding="UTF-8"?>
<svg width="28px" height="26px" viewBox="0 0 28 26" version="1.1" xmlns="http://www.w3.org/2000/svg" xmlns:xlink="http://www.w3.org/1999/xlink">
    <title>btn_like</title>
    <g id="页面-1" stroke="none" stroke-width="1" fill="none" fill-rule="evenodd">
        <g id="图标资源下载" transform="translate(-523.000000, -878.000000)">
            <g id="编组" transform="translate(523.000000, 877.000000)">
                <rect id="矩形" x="0" y="0" width="28" height="28"></rect>
                <path d="M15.1757447,2.00040702 C16.0226408,1.97951294 16.8300346,2.63203857 17.580175,3.39580561 C18.7722552,4.60954045 19.8024834,6.25399912 20.4672674,7.40367409 L20.6990336,7.80980158 C20.8059539,7.9994612 20.8991319,8.16765891 20.9772255,8.30829395 C21.164969,8.6463921 21.2969924,8.86160443 21.3452939,8.92206615 C21.3856412,8.97257107 21.5183998,9.10389821 21.7290601,9.29602793 L21.7290601,9.29602793 L24.6131811,9.30973315 C25.3606628,9.31162432 26.0563242,9.62306354 26.5169443,10.178201 C26.8841844,10.6218245 27.0552558,11.1841201 26.9815981,11.741194 L26.9815981,11.741194 L24.9973607,21.6226279 C24.7038158,22.9245331 24.1245447,24.0208324 23.3451534,24.7964883 C22.6296405,25.508572 21.7446694,25.9441436 20.7788017,25.9831926 L20.7788017,25.9831926 L4.35853655,26.0000032 C3.45681928,25.9977218 2.63622689,25.6418494 2.03140747,25.0655778 C1.43290931,24.495329 1.04504149,23.708579 1.00367696,22.8343149 L1.00367696,22.8343149 L1.08081459,10.8078779 C1.09885503,10.4087605 1.26919799,10.0490223 1.53425946,9.78251865 C1.80252516,9.51279329 2.16779579,9.33801025 2.57382725,9.3128837 L2.57382725,9.3128837 L6.80475913,9.25371337 C10.3081712,4.64053164 13.054631,2.05273778 15.1757447,2.00040702 Z" id="路径-3" stroke="#3A3948" stroke-width="2" fill-rule="nonzero"></path>
                <line x1="13.0069291" y1="9.30359578" x2="22.0069291" y2="9.30359578" id="直线" stroke="#3A3948" stroke-width="2" fill="#FFFFFF" fill-rule="nonzero" stroke-linecap="round" stroke-linejoin="round"></line>
            </g>
        </g>
    </g>
</svg>