<?xml version="1.0" encoding="UTF-8"?>
<svg width="30px" height="30px" viewBox="0 0 30 30" version="1.1" xmlns="http://www.w3.org/2000/svg" xmlns:xlink="http://www.w3.org/1999/xlink">
    <title>btn_tag_close</title>
    <g id="页面-1" stroke="none" stroke-width="1" fill="none" fill-rule="evenodd">
        <g id="图标资源下载" transform="translate(-716.000000, -591.000000)">
            <g id="btn_tag_close" transform="translate(716.000000, 591.000000)">
                <rect id="矩形" x="0" y="0" width="30" height="30"></rect>
                <path d="M15,0 C23.2842712,0 30,6.71572875 30,15 C30,23.2842712 23.2842712,30 15,30 C6.71572875,30 0,23.2842712 0,15 C0,6.71572875 6.71572875,0 15,0 Z M10.3482889,9.04121366 C9.98217237,8.67509714 9.3885802,8.67509714 9.02246368,9.04121366 C8.65634716,9.40733019 8.65634716,10.0009224 9.02246368,10.3670389 L9.02246368,10.3670389 L13.6628519,15.0074271 L9.02246368,19.6478154 C8.65634716,20.0139319 8.65634716,20.6075241 9.02246368,20.9736406 C9.3885802,21.3397571 9.98217237,21.3397571 10.3482889,20.9736406 L10.3482889,20.9736406 L14.9886771,16.3332523 L19.6290654,20.9736406 C19.9951819,21.3397571 20.5887741,21.3397571 20.9548906,20.9736406 C21.3210071,20.6075241 21.3210071,20.0139319 20.9548906,19.6478154 L20.9548906,19.6478154 L16.3145024,15.0074271 L20.9548906,10.3670389 C21.3210071,10.0009224 21.3210071,9.40733019 20.9548906,9.04121366 C20.5887741,8.67509714 19.9951819,8.67509714 19.6290654,9.04121366 L19.6290654,9.04121366 L14.9886771,13.6816019 Z" id="btn" fill="#BFC2CB"></path>
            </g>
        </g>
    </g>
</svg>