<?xml version="1.0" encoding="UTF-8"?>
<svg width="46px" height="46px" viewBox="0 0 46 46" version="1.1" xmlns="http://www.w3.org/2000/svg" xmlns:xlink="http://www.w3.org/1999/xlink">
    <title>btn_feedback</title>
    <g id="页面-1" stroke="none" stroke-width="1" fill="none" fill-rule="evenodd">
        <g id="图标资源下载" transform="translate(-148.000000, -1088.000000)">
            <g id="btn_feedback" transform="translate(148.000000, 1088.000000)">
                <rect id="矩形" fill-opacity="0" fill="#000000" x="0" y="0" width="46" height="46"></rect>
                <path d="M23.003375,2 C34.5835821,2 44.003375,11.4197929 44.003375,23 C44.003375,34.5802071 34.5835821,44 23.003375,44 C11.4231679,44 2.003375,34.5802071 2.003375,23 C2.003375,11.4197929 11.4231679,2 23.003375,2 Z M23.003375,5.38319908 C13.2887605,5.38319908 5.38657408,13.2853855 5.38657408,23 C5.38657408,32.7146145 13.2887605,40.6168009 23.003375,40.6168009 C32.7179895,40.6168009 40.6201759,32.7146145 40.6201759,23 C40.6201759,13.2853855 32.7179895,5.38319908 23.003375,5.38319908 Z M23.2450321,30.6218642 C24.3474407,30.6218642 25.2411195,31.515543 25.2411195,32.6179517 C25.2411195,33.7203603 24.3474407,34.6140391 23.2450321,34.6140391 C22.1426234,34.6140391 21.2489446,33.7203603 21.2489446,32.6179517 C21.2489446,31.515543 22.1426234,30.6218642 23.2450321,30.6218642 Z M23.3561943,12.2148446 C26.6644797,12.3888377 29.3927881,15.1147296 29.5667812,18.4254315 C29.7286915,21.530725 27.6866892,24.3315305 24.6973911,25.1265823 L24.6973911,26.9825086 C24.6960578,27.917144 23.9380113,28.6741082 23.003375,28.6741082 C22.0681621,28.6741082 21.3117755,27.9177215 21.3117755,26.9825086 L21.3117755,25.049252 C21.3117755,23.5388953 22.3267352,22.2315305 23.7815108,21.8690449 C25.255619,21.4993096 26.2657455,20.1266974 26.1859987,18.6018412 C26.1014187,16.9996548 24.7795545,15.6777906 23.1773681,15.5932106 C22.2904866,15.5472957 21.44952,15.8566168 20.8091287,16.4631761 C20.1687375,17.0721519 19.8159182,17.8913694 19.8159182,18.7758343 C19.8159182,19.7110472 19.0595315,20.4674338 18.1243186,20.4674338 C17.1891057,20.4674338 16.4327191,19.7110472 16.4327191,18.7758343 C16.4327191,16.9827388 17.1794394,15.2452244 18.4819711,14.0103567 C19.8014187,12.7585731 21.5316834,12.1205984 23.3561943,12.2148446 Z" id="形状结合" fill="#3A3948" fill-rule="nonzero"></path>
            </g>
        </g>
    </g>
</svg>