<?xml version="1.0" encoding="UTF-8"?>
<svg width="40px" height="40px" viewBox="0 0 40 40" version="1.1" xmlns="http://www.w3.org/2000/svg" xmlns:xlink="http://www.w3.org/1999/xlink">
    <title>btn_q&amp;a</title>
    <g id="页面-1" stroke="none" stroke-width="1" fill="none" fill-rule="evenodd">
        <g id="图标资源下载" transform="translate(-334.000000, -369.000000)" fill-rule="nonzero">
            <g id="btn_q&amp;a" transform="translate(334.000000, 369.000000)">
                <polygon id="路径" fill-opacity="0" fill="#000000" points="0 0 40 0 40 40 0 40"></polygon>
                <path d="M20,2 C24.9705685,2 29.4705687,4.01471543 32.7279266,7.27207335 C35.9852846,10.5294313 38,15.0294315 38,20 C38,24.9705685 35.9852846,29.4705687 32.7279266,32.7279266 C29.4705687,35.9852846 24.9705685,38 20,38 C17.2968481,38 14.6782366,37.4029024 12.2949152,36.2720286 C11.2474147,35.7556263 10.920906,35.8933565 10.6159183,35.9978986 L10.6159183,35.9978986 L6.805579,37.3041189 C6.37650115,37.4512143 5.9284217,37.4104606 5.55083396,37.2256674 C5.17323084,37.0408666 4.86612345,36.7120157 4.71902939,36.2829803 C4.63481284,36.0372924 4.61005521,35.7751363 4.64679264,35.5179957 L4.64679264,35.5179957 L5.32337153,30.7812975 C3.10267903,27.1614646 2,23.6635814 2,20 C2,15.0294315 4.01471543,10.5294313 7.27207335,7.27207335 C10.5294313,4.01471543 15.0294315,2 20,2 Z" id="形状" stroke="#3A3948" stroke-width="2"></path>
                <circle id="椭圆形" stroke="#3A3948" stroke-width="2" fill="#333333" cx="14.5" cy="20.5" r="1"></circle>
                <circle id="椭圆形" stroke="#3A3948" stroke-width="2" fill="#333333" cx="20.5" cy="20.5" r="1"></circle>
                <circle id="椭圆形" stroke="#3A3948" stroke-width="2" fill="#333333" cx="26.5" cy="20.5" r="1"></circle>
            </g>
        </g>
    </g>
</svg>