<?xml version="1.0" encoding="UTF-8"?>
<svg width="40px" height="40px" viewBox="0 0 40 40" version="1.1" xmlns="http://www.w3.org/2000/svg" xmlns:xlink="http://www.w3.org/1999/xlink">
    <title>btn_video_sel</title>
    <g id="页面-1" stroke="none" stroke-width="1" fill="none" fill-rule="evenodd">
        <g id="图标资源下载" transform="translate(-523.000000, -434.000000)" fill-rule="nonzero">
            <g id="btn_video_sel" transform="translate(523.000000, 434.000000)">
                <polygon id="路径" fill-opacity="0" fill="#000000" points="0 0 40 0 40 40 0 40"></polygon>
                <path d="M29.8213203,1 C34.8826685,1 39,4.94391688 39,9.79209027 L39,9.79209027 L39,30.2079097 C39,35.0560831 34.8826685,39 29.8213203,39 L29.8213203,39 L10.1786797,39 C5.11733147,39 1,35.0560831 1,30.2079097 L1,30.2079097 L1,9.79209027 C1,4.94391688 5.11733147,1 10.1786797,1 L10.1786797,1 Z M16.9667139,14.2387489 C16.371813,14.5770456 16,15.217263 16,15.915682 L16,24.089367 C16,24.787786 16.371813,25.431641 16.9667139,25.7663001 C17.2464589,25.9263545 17.5545326,26.002744 17.8661473,26.002744 C18.2131728,26.002744 18.5601983,25.9045289 18.8647309,25.7044609 L25.1359773,21.6194373 C25.677762,21.2665902 26,20.6627487 26,20.0007057 C26,19.3459379 25.674221,18.7420965 25.1324363,18.3856118 L18.8647309,14.3005881 C18.2910765,13.9259154 17.5651558,13.9040898 16.9667139,14.2387489 Z" fill="#FC6627"></path>
            </g>
        </g>
    </g>
</svg>