<?xml version="1.0" encoding="UTF-8"?>
<svg width="46px" height="46px" viewBox="0 0 46 46" version="1.1" xmlns="http://www.w3.org/2000/svg" xmlns:xlink="http://www.w3.org/1999/xlink">
    <title>btn_my collect</title>
    <g id="页面-1" stroke="none" stroke-width="1" fill="none" fill-rule="evenodd">
        <g id="图标资源下载" transform="translate(-334.000000, -1016.000000)">
            <g id="btn_my-collect" transform="translate(334.000000, 1016.000000)">
                <rect id="矩形" fill-opacity="0" fill="#000000" x="0" y="0" width="46" height="46"></rect>
                <path d="M22.9987243,43 C21.6414309,43 20.2815862,42.4599764 19.2483084,41.3825981 L3.63178037,25.0995553 C-1.21059346,20.0505086 -1.21059346,11.8358318 3.63178037,6.78678507 C8.47415419,1.73773831 16.352579,1.73773831 21.1949529,6.78678507 L22.9987243,8.67020188 L24.8050471,6.78678507 C29.647421,1.73773831 37.5258458,1.73773831 42.3682196,6.78678507 C47.2105935,11.8358318 47.2105935,20.0505086 42.3682196,25.0995553 L26.7516916,41.3825981 C25.7561947,42.4197746 24.4060206,43.0016523 22.9987243,43 L22.9987243,43 Z M12.103086,6 C9.77084701,6 7.43860801,6.93906151 5.66316481,8.81718453 C2.1122784,12.5734306 2.1122784,18.6856653 5.66316481,22.4419113 L21.7393303,39.4478152 C22.435325,40.1840616 23.5673014,40.1840616 24.2606697,39.4478152 L40.3368352,22.4419113 C43.8877216,18.6856653 43.8877216,12.5734306 40.3368352,8.81718453 C36.7859488,5.06093849 31.0078792,5.06093849 27.4569928,8.81718453 L24.2974393,12.1566873 C23.5793942,12.9161198 22.415353,12.9161198 21.6973079,12.1566873 L18.5430072,8.81718453 C16.7701904,6.93906151 14.435325,6 12.103086,6 Z" id="形状" fill="#3A3948" fill-rule="nonzero"></path>
                <path d="M36.2970851,19 C35.3556164,19 34.5941701,18.2603527 34.5941701,17.3458367 C34.5941701,16.5022134 34.4506387,15.3773823 33.7694728,14.796062 C33.0566812,14.1887478 31.9668157,14.3187178 31.9570847,14.3210809 C31.0277797,14.4628663 30.1665913,13.8437366 30.0206272,12.9433991 C29.874663,12.0406986 30.519338,11.1923491 31.448643,11.0505636 C31.7113784,11.0103911 34.0808629,10.7031893 35.966233,12.2699183 C37.3164013,13.3900232 38,15.1009007 38,17.3481998 C38,18.2603527 37.236121,19 36.2970851,19 L36.2970851,19 Z" id="路径" fill="#FC6627" fill-rule="nonzero"></path>
            </g>
        </g>
    </g>
</svg>