<?xml version="1.0" encoding="UTF-8"?>
<svg width="38px" height="38px" viewBox="0 0 38 38" version="1.1" xmlns="http://www.w3.org/2000/svg" xmlns:xlink="http://www.w3.org/1999/xlink">
    <title>btn_comment</title>
    <g id="页面-1" stroke="none" stroke-width="1" fill="none" fill-rule="evenodd">
        <g id="图标资源下载" transform="translate(-152.000000, -799.000000)">
            <g id="btn_comment" transform="translate(151.000000, 798.000000)">
                <rect id="矩形" x="0" y="0" width="40" height="40"></rect>
                <path d="M20,3.18181818 C29.2884253,3.18181818 36.8181818,10.4901112 36.8181818,19.5053476 C36.8181818,28.520584 29.2884253,35.828877 20,35.828877 C18.2613393,35.828877 16.5842997,35.5728054 15.0067321,35.0973998 C12.708065,36.1581667 10.1593324,36.7684413 7.47322445,36.8152708 L7.13903743,36.8181818 L6.99612245,36.8113887 C6.24360586,36.7394813 5.65508021,36.1055817 5.65508021,35.3342246 C5.65508021,34.9308279 5.81604063,34.5650255 6.07723979,34.2975391 L6.18040107,34.199492 L6.45740437,33.994001 C7.33147385,33.3241769 8.1226577,32.5514816 8.81357698,31.6938549 C5.35750087,28.7041583 3.18181818,24.351359 3.18181818,19.5053476 C3.18181818,10.4901112 10.7115747,3.18181818 20,3.18181818 Z" id="路径" stroke="#595769" stroke-width="3" stroke-linejoin="round"></path>
            </g>
        </g>
    </g>
</svg>