<?xml version="1.0" encoding="UTF-8"?>
<svg width="40px" height="40px" viewBox="0 0 40 40" version="1.1" xmlns="http://www.w3.org/2000/svg" xmlns:xlink="http://www.w3.org/1999/xlink">
    <title>btn_q&amp;a_sel</title>
    <g id="页面-1" stroke="none" stroke-width="1" fill="none" fill-rule="evenodd">
        <g id="图标资源下载" transform="translate(-334.000000, -434.000000)" fill-rule="nonzero">
            <g id="btn_q&amp;a_sel" transform="translate(334.000000, 434.000000)">
                <polygon id="路径" fill-opacity="0" fill="#000000" points="0 0 40 0 40 40 0 40"></polygon>
                <path d="M20,1 C30.4934225,1 39,9.50657753 39,20 C39,30.4934225 30.4934225,39 20,39 C17.1464135,39 14.382191,38.3692854 11.866036,37.1755303 C11.8162944,37.1519191 11.7583337,37.123814 11.6921433,37.0912098 L11.4688719,36.9798944 L11.4688719,36.9798944 C11.3046746,36.8972424 11.1140964,36.8842519 10.9402022,36.9438584 L7.12986966,38.2500764 C5.74927416,38.7233685 4.24639551,37.9878337 3.77306067,36.6072382 C3.63757454,36.2119798 3.59774491,35.7902276 3.65684045,35.3765933 L4.28290112,30.9935708 C4.30670768,30.8268425 4.26808605,30.6571962 4.17445169,30.5172045 C4.1397129,30.4653543 4.10527039,30.4133063 4.07112584,30.3610629 C2.08124944,27.3084674 1,23.7342899 1,20 C1,9.50657753 9.50657753,1 20,1 Z M20,22.3431458 C20,25.4673401 22.6862915,28 26,28 C29.3137085,28 32,25.4673401 32,22.3431458 C32,19.2189514 20,19.2189514 20,22.3431458 Z M21.5,17 C22.3284271,17 23,16.3284271 23,15.5 C23,14.6715729 22.3284271,14 21.5,14 C20.6715729,14 20,14.6715729 20,15.5 C20,16.3284271 20.6715729,17 21.5,17 Z M30.5,17 C31.3284271,17 32,16.3284271 32,15.5 C32,14.6715729 31.3284271,14 30.5,14 C29.6715729,14 29,14.6715729 29,15.5 C29,16.3284271 29.6715729,17 30.5,17 Z" fill="#FC6627"></path>
            </g>
        </g>
    </g>
</svg>