<?xml version="1.0" encoding="UTF-8"?>
<svg width="46px" height="46px" viewBox="0 0 46 46" version="1.1" xmlns="http://www.w3.org/2000/svg" xmlns:xlink="http://www.w3.org/1999/xlink">
    <title>btn_my works</title>
    <g id="页面-1" stroke="none" stroke-width="1" fill="none" fill-rule="evenodd">
        <g id="图标资源下载" transform="translate(-711.000000, -1016.000000)">
            <g id="btn_my-works" transform="translate(711.000000, 1016.000000)">
                <rect id="矩形" fill-opacity="0" fill="#000000" x="0" y="0" width="46" height="46"></rect>
                <path d="M27.2934079,42 C28.2135738,42.0019043 28.9678976,42.6391143 29.0024314,43.4436863 C29.0369652,44.2482583 28.3393899,44.9331798 27.4219793,44.9954695 L27.2934079,44.9999848 L18.7219794,44.9999848 C17.7972682,45.0035908 17.0359243,44.3648323 17.0012283,43.55628 C16.9665323,42.7477276 17.6709901,42.0608128 18.5934079,42.0037499 L18.7219794,42 L27.2934079,42 L27.2934079,42 Z M23,1 C32.9411429,1 41,9.05513939 41,18.9916961 C41,25.9088828 37.3839633,31.9868008 31.5714889,34.9956808 L31.5714286,36.5730103 C31.5714286,38.399083 30.1389161,39.9044127 28.3142857,39.9957163 L28.1428571,40 L17.8571429,40 C16.0302274,40 14.524203,38.5681484 14.4328572,36.7443598 L14.4285539,36.5730103 L14.4285111,34.9956808 C8.61603674,31.9868008 5,25.9088828 5,18.9916961 C5,9.05513939 13.0588571,1 23,1 Z M23,4 C14.7155882,4 8,10.6939314 8,18.9516271 C8,25.0835532 11.3520588,30.353562 16.6470588,32.6605101 C17.0823815,32.8614439 17.3972941,33.2173129 17.5553912,33.632509 L17.5661218,33.6664981 C17.6403613,33.8409435 17.6873372,34.0302913 17.7014706,34.2295515 L17.7058823,34.3614776 L17.7058823,37 L28.2941177,37 L28.2941177,34.3614776 C28.2941176,34.1865327 28.3202632,34.0142747 28.3703974,33.8498942 L28.3977677,33.7729739 C28.5342119,33.2983076 28.8692493,32.8837699 29.3529412,32.6605101 C34.6470588,30.353562 38,25.0835532 38,18.9516271 C38,10.6939314 31.2844118,4 23,4 Z" id="形状结合" fill="#3A3948" fill-rule="nonzero"></path>
                <path d="M24.228125,9.209375 L24.458525,9.21257502 C29.206525,9.33497497 33.028125,13.233375 33.028125,18.009375 L33.028125,18.009375 L33.024125,18.129375 C32.9632573,18.9902983 32.2305408,19.6477922 31.3680761,19.6154093 C30.5056115,19.5830264 29.8242622,18.8724387 29.828125,18.009375 L29.828125,18.009375 L29.824925,17.817375 C29.723325,14.819775 27.250525,12.409375 24.228125,12.409375 L24.228125,12.409375 L24.228,12.408375 L24.2,12.409375 C23.3654364,12.409375 22.6801102,11.7704135 22.6065387,10.9550076 L22.6,10.809375 C22.6,9.9257194 23.3163444,9.209375 24.2,9.209375 C24.2097511,9.209375 24.2194819,9.20946223 24.2291916,9.20963595 L24.228125,9.209375 Z" id="形状结合" fill="#FC6627" fill-rule="nonzero"></path>
            </g>
        </g>
    </g>
</svg>