<?xml version="1.0" encoding="UTF-8"?>
<svg width="32px" height="32px" viewBox="0 0 32 32" version="1.1" xmlns="http://www.w3.org/2000/svg" xmlns:xlink="http://www.w3.org/1999/xlink">
    <title>btn_del</title>
    <g id="页面-1" stroke="none" stroke-width="1" fill="none" fill-rule="evenodd">
        <g id="图标资源下载" transform="translate(-149.000000, -671.000000)">
            <g id="btn_del" transform="translate(149.000000, 671.000000)">
                <rect id="Rectangle-62" fill-opacity="0" fill="#FFFFFF" x="0" y="0" width="32" height="32"></rect>
                <path d="M25.2857143,27.0594714 C25.2857143,27.1059 25.2485714,27.1430429 25.2021429,27.1430429 L6.79785714,27.1430429 C6.75142857,27.1430429 6.71428571,27.1059 6.71428571,27.0594714 L6.71428571,8.57161429 L25.2857143,8.57161429 L25.2857143,27.0594714 Z M28.0714286,6.71447143 L27.1428571,6.71447143 L4.85714286,6.71447143 L3.92857143,6.71447143 C3.416,6.71447143 3,7.13047143 3,7.64304286 C3,8.15561429 3.416,8.57161429 3.92857143,8.57161429 L4.85714286,8.57161429 L4.85714286,27.0594714 C4.85714286,28.1310429 5.72628571,29.0001857 6.79785714,29.0001857 L25.2021429,29.0001857 C26.2737143,29.0001857 27.1428571,28.1310429 27.1428571,27.0594714 L27.1428571,8.57161429 L28.0714286,8.57161429 C28.584,8.57161429 29,8.15561429 29,7.64304286 C29,7.13047143 28.584,6.71447143 28.0714286,6.71447143 L28.0714286,6.71447143 Z M20.6428571,23.4285714 C21.1554286,23.4285714 21.5714286,23.0125714 21.5714286,22.5 L21.5714286,13.2142857 C21.5714286,12.7017143 21.1554286,12.2857143 20.6428571,12.2857143 C20.1302857,12.2857143 19.7142857,12.7017143 19.7142857,13.2142857 L19.7142857,22.5 C19.7142857,23.0125714 20.1302857,23.4285714 20.6428571,23.4285714 M11.3571429,23.4285714 C11.8697143,23.4285714 12.2857143,23.0125714 12.2857143,22.5 L12.2857143,13.2142857 C12.2857143,12.7017143 11.8697143,12.2857143 11.3571429,12.2857143 C10.8445714,12.2857143 10.4285714,12.7017143 10.4285714,13.2142857 L10.4285714,22.5 C10.4285714,23.0125714 10.8445714,23.4285714 11.3571429,23.4285714 M16,23.4285714 C16.5125714,23.4285714 16.9285714,23.0125714 16.9285714,22.5 L16.9285714,13.2142857 C16.9285714,12.7017143 16.5125714,12.2857143 16,12.2857143 C15.4874286,12.2857143 15.0714286,12.7017143 15.0714286,13.2142857 L15.0714286,22.5 C15.0714286,23.0125714 15.4874286,23.4285714 16,23.4285714 M9.5,4.85714286 L22.5,4.85714286 C23.0125714,4.85714286 23.4285714,4.44114286 23.4285714,3.92857143 C23.4285714,3.416 23.0125714,3 22.5,3 L9.5,3 C8.98742857,3 8.57142857,3.416 8.57142857,3.92857143 C8.57142857,4.44114286 8.98742857,4.85714286 9.5,4.85714286" id="Fill-1" fill="#A5A6AB"></path>
            </g>
        </g>
    </g>
</svg>