<?xml version="1.0" encoding="UTF-8"?>
<svg width="40px" height="40px" viewBox="0 0 40 40" version="1.1" xmlns="http://www.w3.org/2000/svg" xmlns:xlink="http://www.w3.org/1999/xlink">
    <title>btn_like2</title>
    <g id="页面-1" stroke="none" stroke-width="1" fill="none" fill-rule="evenodd">
        <g id="图标资源下载" transform="translate(-853.000000, -796.000000)">
            <g id="btn_like2" transform="translate(853.000000, 796.000000)">
                <rect id="矩形" x="0" y="0" width="40" height="40"></rect>
                <path d="M16.7887185,1.67359799 C18.4325479,1.25871747 19.5645282,1.68407104 20.2120594,2.16284834 C23.214658,4.38745142 22.4517273,10.4399391 22.2365123,13.3847804 L22.2365123,13.3847804 L33.82299,10.4605086 C34.8174198,10.2095279 35.8520568,10.3451698 36.6572892,10.8688371 C37.2835624,11.2771242 37.6980307,11.9015059 37.7381391,12.6137501 L37.7381391,12.6137501 L38.4946416,25.3273175 C38.5519291,27.0149022 38.149182,28.545955 37.3633159,29.7403955 C36.6251573,30.8623252 35.5464388,31.6766273 34.2258658,32.0099223 L34.2258658,32.0099223 L9.12963176,38.3438755 C7.89218405,38.6561908 6.63865277,38.4872763 5.6147762,37.9532326 C4.67778243,37.464506 3.93000732,36.6653721 3.60931243,35.6440236 L3.60931243,35.6440236 L1.55764611,20.4221416 C1.42507781,19.9547006 1.5318354,19.4821311 1.78875982,19.0971249 C2.07090505,18.6743247 2.52914416,18.3542515 3.08684752,18.2134946 L3.08684752,18.2134946 L9.51914313,16.5900694 C9.56029928,15.8987759 9.68391947,15.1748758 9.93345705,14.4842905 L9.93345705,14.4842905 L13.4114583,4.89204433 C13.8640158,3.65087115 14.5082035,2.24916945 16.7887185,1.67359799 Z" id="已赞" stroke="#595769" stroke-width="3" fill-rule="nonzero"></path>
            </g>
        </g>
    </g>
</svg>