<?xml version="1.0" encoding="UTF-8"?>
<svg width="28px" height="28px" viewBox="0 0 28 28" version="1.1" xmlns="http://www.w3.org/2000/svg" xmlns:xlink="http://www.w3.org/1999/xlink">
    <title>btn_like_sel</title>
    <g id="页面-1" stroke="none" stroke-width="1" fill="none" fill-rule="evenodd">
        <g id="图标资源下载" transform="translate(-334.000000, -877.000000)">
            <g id="btn_like_sel" transform="translate(334.000000, 877.000000)">
                <rect id="矩形" x="0" y="0" width="28" height="28"></rect>
                <path d="M26.2335338,6.7285972 C25.4343068,6.20883427 24.4098805,6.05423218 23.4191444,6.30428069 L16.7245544,7.99390552 C16.8978314,5.41883636 16.6949496,2.09389806 14.7735133,0.670320068 C14.1548621,0.212895478 13.0841304,-0.247593008 11.4951544,0.153443238 C9.42505423,0.67590879 8.81509312,1.93056989 8.40154997,3.0647433 L5.96630393,9.78108994 C5.84861636,10.1067833 5.76350815,10.4396703 5.7053589,10.7719196 L1.90384468,11.7313709 C0.580753145,12.0653015 -0.230087992,13.2935811 0.0580593667,14.4973161 L1.46298238,25.0173041 L1.49685844,25.1721658 C2.08033363,27.2232514 4.39083847,28.4283875 6.64769081,27.8587882 L24.2150547,23.4250209 C26.5795269,22.8282598 28.0971249,20.5305491 27.9951611,17.6796247 L27.4648434,8.76725664 C27.4188014,7.94948666 26.9665678,7.20648492 26.2335338,6.7285972 Z" id="已赞" fill="#FF5F2B" fill-rule="nonzero"></path>
            </g>
        </g>
    </g>
</svg>