<?xml version="1.0" encoding="UTF-8"?>
<svg width="40px" height="40px" viewBox="0 0 40 40" version="1.1" xmlns="http://www.w3.org/2000/svg" xmlns:xlink="http://www.w3.org/1999/xlink">
    <title>btn_video</title>
    <g id="页面-1" stroke="none" stroke-width="1" fill="none" fill-rule="evenodd">
        <g id="图标资源下载" transform="translate(-523.000000, -369.000000)" fill-rule="nonzero">
            <g id="btn_video" transform="translate(523.000000, 369.000000)">
                <polygon id="路径" fill-opacity="0" fill="#000000" points="0 0 40 0 40 40 0 40"></polygon>
                <path d="M29.8213203,2 C32.0378181,2 34.053015,2.84437363 35.5304794,4.21853193 C36.9201464,5.51103179 37.8338057,7.27349082 37.9795021,9.23727236 L37.9960823,9.54897701 L38,30.2079097 C38,32.3097855 37.1210613,34.2172482 35.7020976,35.6170785 C34.3383184,36.9624683 32.476457,37.840432 30.4057988,37.9803308 L30.0771598,37.9962471 L10.1786797,38 C7.96218194,38 5.94698496,37.1556264 4.46952062,35.7814681 C3.07985359,34.4889682 2.16619427,32.7265092 2.0204979,30.7627276 L2.00391774,30.451023 L2,9.79209027 C2,7.69021451 2.87893866,5.78275181 4.29790243,4.38292149 C5.66168159,3.03753166 7.52354301,2.15956805 9.59420118,2.01966921 L9.92284018,2.00375288 L29.8213203,2 Z M17.9588461,13.0042402 C17.4523966,12.9877396 16.9408063,13.1074952 16.4786306,13.3659518 C16.0179573,13.6278891 15.6483491,14.0013778 15.3930595,14.4442219 C15.1405927,14.8821694 15,15.3878856 15,15.915682 L15,15.915682 L15,24.089367 L15.0085391,24.3142551 C15.0425274,24.7609326 15.1769682,25.187342 15.3937152,25.5633272 C15.6499407,26.0077949 16.0209427,26.3816303 16.4764222,26.6378585 C16.9043086,26.8827014 17.3822255,27.002744 17.8661473,27.002744 C18.4040273,27.002744 18.9418252,26.8503099 19.4138063,26.5402337 L19.4138063,26.5402337 L25.6817839,22.4573485 L25.8418201,22.3452943 C26.5678933,21.7996093 27,20.9407324 27,20.0007057 C27,19.0067269 26.5041186,18.0910994 25.6821038,17.5502282 L25.6821038,17.5502282 L19.4107538,13.4628179 L19.2175642,13.347256 C18.8245185,13.1328046 18.3933994,13.0183983 17.9588461,13.0042402 Z" stroke="#3A3948" stroke-width="2"></path>
            </g>
        </g>
    </g>
</svg>