<?xml version="1.0" encoding="UTF-8"?>
<svg width="36px" height="36px" viewBox="0 0 36 36" version="1.1" xmlns="http://www.w3.org/2000/svg" xmlns:xlink="http://www.w3.org/1999/xlink">
    <title>btn_channel</title>
    <g id="页面-1" stroke="none" stroke-width="1" fill="none" fill-rule="evenodd">
        <g id="图标资源下载" transform="translate(-334.000000, -603.000000)">
            <g id="btn_channel" transform="translate(334.000000, 603.000000)">
                <rect id="矩形" x="0" y="0" width="36" height="36"></rect>
                <path d="M33,29 C34.1045695,29 35,29.8954305 35,31 C35,32.1045695 34.1045695,33 33,33 L19,33 C17.8954305,33 17,32.1045695 17,31 C17,29.8954305 17.8954305,29 19,29 L33,29 Z M33,16 C34.1045695,16 35,16.8954305 35,18 C35,19.1045695 34.1045695,20 33,20 L3,20 C1.8954305,20 1,19.1045695 1,18 C1,16.8954305 1.8954305,16 3,16 L33,16 Z M33,3 C34.1045695,3 35,3.8954305 35,5 C35,6.1045695 34.1045695,7 33,7 L3,7 C1.8954305,7 1,6.1045695 1,5 C1,3.8954305 1.8954305,3 3,3 L33,3 Z" id="形状结合" fill="#9EA1AE" transform="translate(18.000000, 18.000000) scale(-1, 1) translate(-18.000000, -18.000000) "></path>
            </g>
        </g>
    </g>
</svg>