<?xml version="1.0" encoding="UTF-8"?>
<svg width="46px" height="46px" viewBox="0 0 46 46" version="1.1" xmlns="http://www.w3.org/2000/svg" xmlns:xlink="http://www.w3.org/1999/xlink">
    <title>btn_xiaozhitongxue </title>
    <g id="页面-1" stroke="none" stroke-width="1" fill="none" fill-rule="evenodd">
        <g id="图标资源下载" transform="translate(-334.000000, -1088.000000)">
            <g id="btn_xiaozhitongxue-" transform="translate(334.000000, 1088.000000)">
                <rect id="矩形" fill-opacity="0" fill="#000000" x="0" y="0" width="46" height="46"></rect>
                <path d="M23,1 C35.1502645,1 45,10.8497355 45,23 C45,35.1502645 35.1502645,45 23,45 C10.8497355,45 1,35.1502645 1,23 C1,10.8497355 10.8497355,1 23,1 Z M22.9563863,9 C16.2061018,9 10.6659599,14.3413196 10.4193645,21.0870984 C9.55552224,21.484411 9.00145376,22.3476573 9,23.2984878 L9,23.2984878 L9,25.3919458 C9,26.7408282 10.0934852,27.8343134 11.4423676,27.8343134 L11.4423676,27.8343134 L12.8380062,27.8343134 C14.1868886,27.8343134 15.2803738,26.7408282 15.2803738,25.3919458 L15.2803738,25.3919458 L15.2803738,23.2984878 C15.2803738,21.9496055 14.1868886,20.8561202 12.8380062,20.8561202 L12.8380062,20.8561202 L12.5239875,20.8561202 C12.8838486,15.3590248 17.4475245,11.0843364 22.9563863,11.0843364 C28.4652481,11.0843364 33.028924,15.3590248 33.388785,20.8561202 L33.388785,20.8561202 L33.0754642,20.8561202 C31.7265818,20.8561203 30.6330966,21.9496055 30.6330966,23.2984878 L30.6330966,23.2984878 L30.6330966,25.3919458 C30.6334736,26.5468884 31.4427933,27.5436909 32.5730343,27.7812791 C31.1516562,31.0822158 28.1376329,33.4243198 24.5878879,33.9862885 C24.2598495,33.6244221 23.7944155,33.4176751 23.3059938,33.4168679 L23.3059938,33.4168679 L21.9103551,33.4168679 C20.9468677,33.4168679 20.1658068,34.1979288 20.1658068,35.1614162 C20.1658068,36.1249036 20.9468677,36.9059645 21.9103551,36.9059645 L21.9103551,36.9059645 L23.3059938,36.9059645 C23.9126652,36.9044938 24.4747899,36.587208 24.7895576,36.0685813 C29.4017257,35.3831502 33.255247,32.2004022 34.7997757,27.800818 C36.0081284,27.6404127 36.9114896,26.610897 36.9134704,25.3919458 L36.9134704,25.3919458 L36.9134704,23.2984878 C36.9118912,22.3474956 36.3575227,21.4842063 35.4934081,21.0870984 C35.2468127,14.3413196 29.7066708,9 22.9563863,9 Z M26.7971838,26.0004442 C26.3659551,25.6192507 25.7090214,25.6530589 25.3192025,26.0765065 C24.7270435,26.7641973 23.8645922,27.159685 22.9570841,27.159685 C22.0495761,27.159685 21.1871247,26.7641973 20.5949657,26.0765065 C20.2051468,25.6530589 19.5482132,25.6192507 19.1169844,26.0004442 C18.9109628,26.1815576 18.7866173,26.4380512 18.7720413,26.7119755 C18.7574653,26.9858998 18.8538886,27.2541409 19.0395265,27.4560953 C20.0347027,28.5752677 21.4594524,29.2175979 22.9570841,29.222276 C24.454639,29.2172433 25.8792507,28.5749754 26.8746417,27.4560953 C27.060098,27.2540552 27.1564004,26.9858562 27.1418275,26.7119915 C27.1272547,26.4381267 27.003034,26.1816622 26.7971838,26.0004442 Z M12.1408847,22.9495782 C12.7189772,22.9495782 13.1876137,23.4182147 13.1876137,23.9963071 L13.1876137,23.9963071 L13.1876137,24.6941265 C13.1876137,25.2722189 12.7189772,25.7408554 12.1408847,25.7408554 C11.5627923,25.7408554 11.0941558,25.2722189 11.0941558,24.6941265 L11.0941558,24.6941265 L11.0941558,23.9963071 C11.0941558,23.4182147 11.5627923,22.9495782 12.1408847,22.9495782 Z M33.7732835,22.9495782 C34.3513759,22.9495782 34.8200125,23.4182147 34.8200125,23.9963071 L34.8200125,23.9963071 L34.8200125,24.6941265 C34.8200125,25.2722189 34.3513759,25.7408554 33.7732835,25.7408554 C33.1951911,25.7408554 32.7265545,25.2722189 32.7265545,24.6941265 L32.7265545,24.6941265 L32.7265545,23.9963071 C32.7265545,23.4182147 33.1951911,22.9495782 33.7732835,22.9495782 Z" id="形状结合" fill="#FC6627"></path>
            </g>
        </g>
    </g>
</svg>