<?xml version="1.0" encoding="UTF-8"?>
<svg width="44px" height="44px" viewBox="0 0 44 44" version="1.1" xmlns="http://www.w3.org/2000/svg" xmlns:xlink="http://www.w3.org/1999/xlink">
    <title>btn_pic</title>
    <g id="页面-1" stroke="none" stroke-width="1" fill="none" fill-rule="evenodd">
        <g id="图标资源下载" transform="translate(-707.000000, -865.000000)">
            <g id="btn_pic" transform="translate(707.000000, 865.000000)">
                <rect id="矩形" fill-opacity="0" fill="#D8D8D8" x="0" y="0" width="44" height="44"></rect>
                <path d="M33.4708054,-7.81597009e-14 C39.2769041,-7.81597009e-14 44,4.72309586 44,10.5291946 L44,10.5291946 L44,33.4677971 C44,39.2738958 39.2769041,43.9969917 33.4708054,43.9969917 L33.4708054,43.9969917 L10.5291946,43.9969917 C4.72309586,43.9969917 0,39.2738958 0,33.4677971 L0,33.4677971 L0,10.5291946 C0,4.72309586 4.72309586,-7.81597009e-14 10.5291946,-7.81597009e-14 L10.5291946,-7.81597009e-14 Z M33.4758435,3 L10.5241565,3 C6.37383178,3 3,6.37383178 3,10.5241565 L3,10.5241565 L3,33.4758435 C3,37.6231586 6.37684144,41 10.5271662,41 L10.5271662,41 L16.3057184,41 C16.2124188,33.2621575 18.3823856,27.0923491 22.767464,22.6410581 C29.0937748,16.2184381 38.0354823,15.4118486 41,15.3245684 L41,15.3245684 L41,10.5241565 C41,6.37383178 37.6261682,3 33.4758435,3 L33.4758435,3 Z M41,18 C38.3255505,18.1038651 30.1953463,18.8920175 24.6632659,24.5282242 C20.813402,28.4476026 18.9144208,33.9829991 19.0029585,41 L19.0029585,41 L33.3674387,41 C37.5745065,41 41,37.5724532 41,33.3628636 L41,33.3628636 Z M13,9 C15.7565169,9 18,11.2434831 18,14 C18,16.7592901 15.7565169,19 13,19 C10.2434831,19 8,16.7565169 8,14 C8,11.2434831 10.2434831,9 13,9 Z M13,12 C11.8973932,12 11,12.8973932 11,14 C11,15.1026068 11.8973932,16 13,16 C14.1026068,16 15,15.103716 15,14 C15,12.8973932 14.1026068,12 13,12 Z" id="形状结合" fill="#595769" fill-rule="nonzero"></path>
            </g>
        </g>
    </g>
</svg>