<?xml version="1.0" encoding="UTF-8"?>
<svg width="40px" height="40px" viewBox="0 0 40 40" version="1.1" xmlns="http://www.w3.org/2000/svg" xmlns:xlink="http://www.w3.org/1999/xlink">
    <title>btn_mine_sel</title>
    <g id="页面-1" stroke="none" stroke-width="1" fill="none" fill-rule="evenodd">
        <g id="图标资源下载" transform="translate(-711.000000, -434.000000)" fill-rule="nonzero">
            <g id="btn_mine_sel" transform="translate(711.000000, 434.000000)">
                <polygon id="路径" fill-opacity="0" fill="#000000" points="0 0 40 0 40 40 0 40"></polygon>
                <path d="M20,0 C29.3888407,0 37,7.61115925 37,17 C37,23.057303 33.8319979,28.3746795 29.0624905,31.3856326 L33.4461234,36.3269639 C34.2204016,37.1974522 34.1796501,38.5774947 33.3442447,39.4267516 C32.9876692,39.7611465 32.5530929,39.9492436 32.1087664,39.991043 L31.9179428,40 L8.09870135,40 C6.9372841,40 6,39.0233546 6,37.8131635 C6,37.3036093 6.16099351,36.8276061 6.44004893,36.4597113 L6.55014501,36.3269639 L10.9305401,31.3812305 C6.16491622,28.3694985 3,23.0543521 3,17 C3,7.61115925 10.6111593,0 20,0 Z M15,19.7573593 C15,22.1005051 17.2385763,24 20,24 C22.7614237,24 25,22.1005051 25,19.7573593 C25,17.4142136 15,17.4142136 15,19.7573593 Z M15.5,12 C14.6715729,12 14,12.6715729 14,13.5 C14,14.3284271 14.6715729,15 15.5,15 C16.3284271,15 17,14.3284271 17,13.5 C17,12.6715729 16.3284271,12 15.5,12 Z M24.5,12 C23.6715729,12 23,12.6715729 23,13.5 C23,14.3284271 23.6715729,15 24.5,15 C25.3284271,15 26,14.3284271 26,13.5 C26,12.6715729 25.3284271,12 24.5,12 Z" fill="#FC6627"></path>
            </g>
        </g>
    </g>
</svg>