<?xml version="1.0" encoding="UTF-8"?>
<svg width="40px" height="40px" viewBox="0 0 40 40" version="1.1" xmlns="http://www.w3.org/2000/svg" xmlns:xlink="http://www.w3.org/1999/xlink">
    <title>btn_mine</title>
    <g id="页面-1" stroke="none" stroke-width="1" fill="none" fill-rule="evenodd">
        <g id="图标资源下载" transform="translate(-711.000000, -369.000000)">
            <g id="btn_mine" transform="translate(711.000000, 369.000000)">
                <polygon id="路径" fill-opacity="0" fill="#000000" fill-rule="nonzero" points="0 0 40 0 40 40 0 40"></polygon>
                <path d="M15,21 C16,23 17.790861,24 20,24 C22.209139,24 24,23 25,21" id="路径" stroke="#3A3948" stroke-width="2" stroke-linecap="round" stroke-linejoin="round"></path>
                <path d="M20,1 C24.418278,1 28.418278,2.790861 31.3137085,5.6862915 C34.209139,8.581722 36,12.581722 36,17 C36,23.1250527 32.5581527,28.4460022 27.5035635,31.135236 L27.5035635,31.135236 L32.6989318,36.9915726 C32.9133637,37.2326493 33.0094273,37.5455487 32.9992773,37.8543731 C32.9890999,38.1640332 32.8720139,38.4733365 32.6449277,38.7113901 C32.4720844,38.8679976 32.2665601,38.9628893 32.0537559,38.9910634 L32.0537559,38.9910634 L8.09870135,39 C7.79925738,39 7.53041761,38.8712805 7.33531558,38.6679852 C7.12564979,38.4495145 7,38.1464325 7,37.8131635 C7,37.5441296 7.07574489,37.2893225 7.21823454,37.0892741 L7.21823454,37.0892741 L12.4872401,31.1303394 C7.43767351,28.4395466 4,23.1213373 4,17 C4,12.581722 5.790861,8.581722 8.6862915,5.6862915 C11.581722,2.790861 15.581722,1 20,1 Z" id="路径" stroke="#3A3948" stroke-width="2" fill-rule="nonzero"></path>
            </g>
        </g>
    </g>
</svg>