<?xml version="1.0" encoding="UTF-8"?>
<svg width="44px" height="36px" viewBox="0 0 44 36" version="1.1" xmlns="http://www.w3.org/2000/svg" xmlns:xlink="http://www.w3.org/1999/xlink">
    <title>btn_colletc</title>
    <g id="页面-1" stroke="none" stroke-width="1" fill="none" fill-rule="evenodd">
        <g id="图标资源下载" transform="translate(-523.000000, -800.000000)">
            <g id="icon/收藏" transform="translate(523.000000, 796.000000)">
                <rect id="矩形" x="0" y="0" width="44" height="44"></rect>
                <path d="M11.873655,5.5 C14.5343904,5.5 17.1966682,6.49092834 19.2222013,8.47811166 L19.2222013,8.47811166 L21.9980372,11.2052448 L24.7770424,8.47885419 C26.8033318,6.49092834 29.4656096,5.5 32.126345,5.5 C34.7870804,5.5 37.4493582,6.49092834 39.4756476,8.47885419 C41.4906505,10.4557072 42.5,13.0518025 42.5,15.6488522 C42.5,18.2459018 41.4906505,20.8419971 39.4756476,22.8188501 L39.4756476,22.8188501 L24.5385161,37.4731783 C23.8652739,38.1331598 22.9515456,38.5010494 21.9987798,38.5 C21.0814315,38.5 20.160837,38.1592905 19.461901,37.4735873 L19.461901,37.4735873 L4.52435242,22.8188501 C2.50934954,20.8419971 1.5,18.2459018 1.5,15.6488522 C1.5,13.0518025 2.50934954,10.4557072 4.52435242,8.47885419 C6.55064184,6.49092834 9.21291961,5.5 11.873655,5.5 Z" id="形状" stroke="#595769" stroke-width="3" fill-rule="nonzero"></path>
            </g>
        </g>
    </g>
</svg>