<?xml version="1.0" encoding="UTF-8"?>
<svg width="36px" height="36px" viewBox="0 0 36 36" version="1.1" xmlns="http://www.w3.org/2000/svg" xmlns:xlink="http://www.w3.org/1999/xlink">
    <title>btn_channel_close</title>
    <g id="页面-1" stroke="none" stroke-width="1" fill="none" fill-rule="evenodd">
        <g id="图标资源下载" transform="translate(-523.000000, -594.000000)">
            <g id="btn_channel_close" transform="translate(523.000000, 594.000000)">
                <rect id="矩形" x="0" y="0" width="36" height="36"></rect>
                <path d="M20.346384,18 L30.514048,28.167664 C31.161984,28.8156 31.161984,29.8661119 30.514048,30.514048 C29.8661119,31.161984 28.8156,31.161984 28.167664,30.514048 L18,20.346384 L7.83233603,30.514048 C7.18439998,31.161984 6.13388808,31.161984 5.48595204,30.514048 C4.83801599,29.8661119 4.83801599,28.8156 5.48595204,28.167664 L15.653616,18 L5.48595204,7.83233603 C4.83801599,7.18439998 4.83801599,6.13388808 5.48595204,5.48595204 C6.13388808,4.83801599 7.18439998,4.83801599 7.83233603,5.48595204 L18,15.653616 L28.167664,5.48595204 C28.8156,4.83801599 29.8661119,4.83801599 30.514048,5.48595204 C31.161984,6.13388808 31.161984,7.18439998 30.514048,7.83233603 L20.346384,18 Z" id="Path" fill="#BFC2CB" fill-rule="nonzero"></path>
            </g>
        </g>
    </g>
</svg>