<?xml version="1.0" encoding="UTF-8"?>
<svg width="46px" height="46px" viewBox="0 0 46 46" version="1.1" xmlns="http://www.w3.org/2000/svg" xmlns:xlink="http://www.w3.org/1999/xlink">
    <title>btn_history</title>
    <g id="页面-1" stroke="none" stroke-width="1" fill="none" fill-rule="evenodd">
        <g id="图标资源下载" transform="translate(-523.000000, -1016.000000)">
            <g id="btn_history" transform="translate(523.000000, 1016.000000)">
                <rect id="矩形" fill-opacity="0" fill="#000000" x="0" y="0" width="46" height="46"></rect>
                <path d="M23,45 C10.8697503,45 1,35.1302497 1,23 C1,10.8697503 10.8697503,1 23,1 C35.1302497,1 45,10.8697503 45,23 C45,35.1302497 35.1302497,45 23,45 Z M23,4 C12.5240708,4 4,12.5240708 4,23 C4,33.4759292 12.5240708,42 23,42 C33.4759292,42 42,33.4759292 42,23 C42,12.5240708 33.4759292,4 23,4 Z" id="形状" fill="#3A3948" fill-rule="nonzero"></path>
                <path d="M23,9.5 C23.8284271,9.5 24.5,10.1715729 24.5,11 L24.5,21.5 L33,21.5 C33.8284271,21.5 34.5,22.1715729 34.5,23 C34.5,23.8284271 33.8284271,24.5 33,24.5 L23,24.5 C22.1715729,24.5 21.5,23.8284271 21.5,23 L21.5,11 C21.5,10.1715729 22.1715729,9.5 23,9.5 Z" id="形状结合" fill="#FC6627"></path>
            </g>
        </g>
    </g>
</svg>