<?xml version="1.0" encoding="UTF-8"?>
<svg width="38px" height="38px" viewBox="0 0 38 38" version="1.1" xmlns="http://www.w3.org/2000/svg" xmlns:xlink="http://www.w3.org/1999/xlink">
    <title>btn_share</title>
    <g id="页面-1" stroke="none" stroke-width="1" fill="none" fill-rule="evenodd">
        <g id="图标资源下载" transform="translate(-337.000000, -799.000000)">
            <g id="btn_share" transform="translate(336.000000, 798.000000)">
                <rect id="矩形" x="0" y="0" width="40" height="40"></rect>
                <path d="M36.5779221,16.7081851 L24.5649351,3.54092526 C24.0844156,3.06211582 23.3636364,3.06211582 22.8831169,3.54092526 C22.4025974,4.01973472 22.4025974,4.25913944 22.4025974,4.73794887 L22.4025974,11.6806859 C12.5519481,11.6806859 3.18181818,19.8204465 3.18181818,29.6360401 C3.18181818,32.2694921 4.38311688,35.6211582 5.58441557,36.8181818 C7.025974,29.3966354 14.4740259,23.650922 22.4025974,23.650922 C22.4025974,24.3691362 22.4025974,30.8330637 22.4025974,30.8330637 C22.4025974,31.0724684 22.4025974,31.3118732 22.6428571,31.7906826 C23.1233766,32.2694921 24.0844156,32.0300873 24.3246753,31.7906826 L36.3376623,18.8628276 C36.8181818,18.3840181 36.8181818,17.9052087 36.8181818,17.665804 C36.8181818,17.4263992 36.8181818,16.9475898 36.5779221,16.7081851 Z" id="分享" stroke="#595769" stroke-width="3" stroke-linejoin="round"></path>
            </g>
        </g>
    </g>
</svg>