<?xml version="1.0" encoding="UTF-8"?>
<svg width="36px" height="36px" viewBox="0 0 36 36" version="1.1" xmlns="http://www.w3.org/2000/svg" xmlns:xlink="http://www.w3.org/1999/xlink">
    <title>btn_search</title>
    <g id="页面-1" stroke="none" stroke-width="1" fill="none" fill-rule="evenodd">
        <g id="图标资源下载" transform="translate(-149.000000, -603.000000)">
            <g id="btn_search" transform="translate(149.000000, 603.000000)">
                <rect id="矩形" x="0" y="0" width="36" height="36"></rect>
                <path d="M17,0 C26.3888407,0 34,7.61115925 34,17 C34,20.7924082 32.7581847,24.2947749 30.6590014,27.1226527 L35.4123882,31.8768542 C36.1934367,32.6579028 36.1934367,33.9242328 35.4123882,34.7052814 L34.7052814,35.4123882 C33.9242328,36.1934367 32.6579028,36.1934367 31.8768542,35.4123882 L27.1236585,30.6582546 C24.2956054,32.7578902 20.7928578,34 17,34 C7.61115925,34 0,26.3888407 0,17 C0,7.61115925 7.61115925,0 17,0 Z M17,3 C9.2680135,3 3,9.2680135 3,17 C3,24.7319865 9.2680135,31 17,31 C24.7319865,31 31,24.7319865 31,17 C31,9.2680135 24.7319865,3 17,3 Z" id="形状结合" fill="#9EA1AE"></path>
            </g>
        </g>
    </g>
</svg>