<?xml version="1.0" encoding="UTF-8"?>
<svg width="40px" height="40px" viewBox="0 0 40 40" version="1.1" xmlns="http://www.w3.org/2000/svg" xmlns:xlink="http://www.w3.org/1999/xlink">
    <title>icon_readingtime</title>
    <g id="页面-1" stroke="none" stroke-width="1" fill="none" fill-rule="evenodd">
        <g id="我的" transform="translate(-40.000000, -252.000000)">
            <g id="编组-7" transform="translate(30.000000, 242.000000)">
                <g id="icon_readingtime" transform="translate(10.000000, 10.000000)">
                    <rect id="矩形" fill-opacity="0" fill="#D8D8D8" x="0" y="0" width="40" height="40"></rect>
                    <circle id="椭圆形" stroke-opacity="0.333923767" stroke="#FFFFFF" fill="#FC6627" cx="20" cy="20" r="19.5"></circle>
                    <g id="编组" transform="translate(5.000000, 10.000000)" fill-rule="nonzero">
                        <path d="M12.6592381,19.7374429 C12.4862857,18.5706849 12.060381,17.8634703 11.3815238,17.6165297 C10.8382857,17.4185388 9.98723811,17.2431964 7.45009525,18.0731507 C5.75714286,18.6269407 3.53619046,19.1821918 0.785714286,19.7374429 L0.0291428571,18.2645662 C1.56514286,17.9540639 2.96552382,17.5734247 4.23104761,17.1226484 C6.12971429,16.4475799 9.08514286,15.5978995 11.1491429,15.3809133 C12.524381,15.2362557 13.6085714,15.6687671 14.4024762,16.6784475 L14.5175238,16.9947945 L14.8740953,16.9962557 L15.2299048,16.9947945 L15.3464762,16.6784475 C16.3697143,15.6044749 17.5689524,15.1390868 18.9441905,15.2837443 C21.0081905,15.5007306 23.6192381,16.4475799 25.5171429,17.1226484 C26.7819047,17.5734247 28.1838095,17.9540639 29.7190476,18.2645662 L28.9624762,19.7374429 C26.212,19.1821918 23.9902857,18.6269406 22.2988571,18.0731507 C19.7617143,17.2431963 18.9099048,17.4185388 18.3674286,17.6165297 C17.6878095,17.8634703 17.2626667,18.5706849 17.0897143,19.7374429 L12.6592381,19.7374429 Z" id="路径" fill="#FF962A"></path>
                        <path d="M12.3026667,17.3703196 C12.8032381,17.8123288 13.1438095,18.3653881 13.324381,19.0302283 L16.4375238,19.0302283 C16.964,17.5084018 17.8379048,16.783653 19.06,16.8545205 C20.892381,16.9619178 23.3358095,17.8473973 24.5700953,18.2251141 C25.3899048,18.4764384 26.9342857,18.8242009 29.2024762,19.269863 L28.9624762,19.7374429 C26.212,19.1821918 23.9902857,18.6269406 22.2988571,18.0731507 C19.7617143,17.2431963 18.9099048,17.4185388 18.3674286,17.6165297 C17.6878095,17.8634703 17.2626667,18.5706849 17.0897143,19.7374429 L12.6592381,19.7374429 C12.4862857,18.5706849 12.060381,17.8634703 11.3815238,17.6165297 C10.8382857,17.4185388 9.98723811,17.2431964 7.45009525,18.0731507 C5.85771429,18.5947945 3.796,19.1164384 1.26571429,19.6395434 L0.785714286,19.7374429 L0.55790475,19.2939726 L0.744571429,19.2508676 C3.31523811,18.6547032 4.89542857,18.2616438 5.48590475,18.0709589 C6.404,17.7736073 8.98152379,16.9275799 9.51714286,16.8545205 C10.0535238,16.7821918 11.5521905,16.7076712 12.3026667,17.3703196 Z" id="路径" fill="#F05400"></path>
                        <path d="M14.5251429,1.68593606 L14.8809524,1.69031962 L14.8809524,17.0196347 L14.5251429,17.0174429 C13.5681905,15.4831963 11.7731429,15.0338813 9.14152382,15.6687671 C5.19333332,16.6207306 3.12323811,17.903653 0.0238095357,18.2762557 C0.259238107,16.8252968 0.985333357,11.847032 2.20285714,3.34 C5.94761904,2.11990866 8.71866668,1.31260274 10.516,0.920273973 C12.3133333,0.527945205 13.6497143,0.782922363 14.5251429,1.68593606 Z" id="路径" fill="#FFD3A5"></path>
                        <path d="M14.8794286,17.0196347 L14.5251429,17.0174429 C13.6337143,15.5781735 11.8714286,15.176347 9.23904761,15.8105023 C5.29085714,16.7624658 3.28323811,17.8415525 0.0238095357,18.2762557 C0.259238107,16.8252968 0.985333357,11.6030137 2.20285714,2.6094064 C5.94761904,1.38931507 8.71866668,0.582009144 10.516,0.189680377 C12.3133333,-0.20264839 13.6497143,0.0523287671 14.5251429,0.955342466 L14.8794286,0.958995445 L15.2352381,0.955342466 C16.0740952,0.0903196233 17.3365714,-0.18 19.0219048,0.144383562 L19.244381,0.189680377 C21.0417143,0.582009144 23.8127619,1.38858449 27.5582857,2.6094064 C28.7750476,11.6030137 29.5011429,16.8252968 29.7365714,18.2762557 C26.6371429,17.9051142 24.5670476,16.6207306 20.6188571,15.6680365 C17.9872381,15.0338813 16.1921905,15.4831964 15.2352381,17.0174429 L14.8809524,17.0196347 L14.8794286,17.0196347 L14.8794286,17.0196347 Z" id="路径" fill="#FFD3A5"></path>
                        <path d="M27.5582857,2.6094064 C28.7750476,11.6030137 29.5011429,16.8252968 29.7365714,18.2762557 C27.7281905,18.0351598 26.1518095,17.4112329 24.2165714,16.7427397 L22.916,1.16063928 C24.4708702,1.62135424 26.0184717,2.10433057 27.5582857,2.6094064 L27.5582857,2.6094064 Z M6.84666668,1.15990866 L5.53542857,16.86621 C3.65809525,17.4652968 2.09314286,18.0000913 0.0238095357,18.2762557 C0.259238107,16.8252968 0.985333357,11.6030137 2.20285714,2.6094064 C3.74317067,2.10406654 5.29128033,1.62084659 6.84666668,1.15990866 L6.84666668,1.15990866 Z" id="形状" fill="#FFE3B6"></path>
                        <path d="M18.3110476,0.0406392808 L18.9784762,15.4050228 C17.2961905,15.2939726 16.0794286,15.7849315 15.3274286,16.8771689 L15.236,17.0174429 L14.8809524,17.0196347 L14.8794286,17.0196347 L14.5251429,17.0174429 C13.819619,15.8799087 12.571619,15.3896803 10.7788571,15.5482192 L11.451619,0.0399086644 C12.7849524,-0.0879452055 13.8089524,0.216712329 14.5251429,0.955342466 L14.8794286,0.958995445 L15.2352381,0.955342466 C15.9514286,0.216712329 16.9769524,-0.0886757877 18.3110476,0.0399086644 L18.3110476,0.0406392808 Z" id="路径" fill="#FFC589"></path>
                        <polygon id="路径" fill="#FF962A" points="14.5 0.943652979 15.2619047 0.943652979 15.2619047 17.0167123 14.5 17.0167123"></polygon>
                    </g>
                </g>
            </g>
        </g>
    </g>
</svg>