<?xml version="1.0" encoding="UTF-8"?>
<svg width="32px" height="32px" viewBox="0 0 32 32" version="1.1" xmlns="http://www.w3.org/2000/svg" xmlns:xlink="http://www.w3.org/1999/xlink">
    <title>不感兴趣</title>
    <g id="页面-1" stroke="none" stroke-width="1" fill="none" fill-rule="evenodd">
        <g id="图标资源下载" transform="translate(-335.000000, -667.000000)">
            <g id="不感兴趣" transform="translate(335.000000, 667.000000)">
                <rect id="Rectangle-62" fill-opacity="0" fill="#828282" opacity="0" x="0" y="0" width="32" height="32"></rect>
                <path d="M16,30 C23.7319865,30 30,23.7319865 30,16 C30,8.2680135 23.7319865,2 16,2 C8.2680135,2 2,8.2680135 2,16 C2,23.7319865 8.2680135,30 16,30 Z M16,32 C7.163444,32 0,24.836556 0,16 C0,7.163444 7.163444,0 16,0 C24.836556,0 32,7.163444 32,16 C32,24.836556 24.836556,32 16,32 Z" id="Oval-4" fill="#BFC2CB" fill-rule="nonzero"></path>
                <path d="M15.9879223,14.5937087 L20.9376698,9.64396124 C21.3281941,9.25343695 21.961359,9.25343695 22.3518833,9.64396124 C22.7424076,10.0344855 22.7424076,10.6676505 22.3518833,11.0581748 L17.4021359,16.0079223 L22.3518833,20.9576697 C22.7424076,21.348194 22.7424076,21.981359 22.3518833,22.3718833 C21.961359,22.7624076 21.3281941,22.7624076 20.9376698,22.3718833 L15.9879223,17.4221358 L11.0381748,22.3718833 C10.6476505,22.7624076 10.0144856,22.7624076 9.62396126,22.3718833 C9.23343697,21.981359 9.23343697,21.348194 9.62396126,20.9576697 L14.5737087,16.0079223 L9.62396126,11.0581748 C9.23343697,10.6676505 9.23343697,10.0344855 9.62396126,9.64396124 C10.0144856,9.25343695 10.6476505,9.25343695 11.0381748,9.64396124 L15.9879223,14.5937087 Z" id="路径" fill="#BFC2CB"></path>
            </g>
        </g>
    </g>
</svg>