<?xml version="1.0" encoding="UTF-8"?>
<svg width="32px" height="32px" viewBox="0 0 32 32" version="1.1" xmlns="http://www.w3.org/2000/svg" xmlns:xlink="http://www.w3.org/1999/xlink">
    <title>反馈问题</title>
    <g id="页面-1" stroke="none" stroke-width="1" fill="none" fill-rule="evenodd">
        <g id="图标资源下载" transform="translate(-378.000000, -667.000000)">
            <g id="反馈问题" transform="translate(378.000000, 667.000000)">
                <rect id="Rectangle-62" fill-opacity="0" fill="#FFFFFF" x="0" y="0" width="32" height="32"></rect>
                <path d="M16,0 C24.836556,0 32,7.163444 32,16 C32,24.836556 24.836556,32 16,32 C7.163444,32 0,24.836556 0,16 C0,7.163444 7.163444,0 16,0 Z M16,2 C8.2680135,2 2,8.2680135 2,16 C2,23.7319865 8.2680135,30 16,30 C23.7319865,30 30,23.7319865 30,16 C30,8.2680135 23.7319865,2 16,2 Z M15.7915709,21.8727969 C16.5499573,21.8727969 17.164751,22.4875906 17.164751,23.245977 C17.164751,24.0043634 16.5499573,24.6191571 15.7915709,24.6191571 C15.0331845,24.6191571 14.4183908,24.0043634 14.4183908,23.245977 C14.4183908,22.4875906 15.0331845,21.8727969 15.7915709,21.8727969 Z M16.8115812,6.76781609 C17.01102,6.76781609 17.1692503,6.92203065 17.1644878,7.13510859 L16.8739898,20.1323244 C16.8694559,20.3351744 16.6971978,20.4996169 16.5110132,20.4996169 L15.0721313,20.4996169 C14.8761987,20.4996169 14.7139171,20.3454023 14.7091547,20.1323244 L14.4186566,7.13510859 C14.4141227,6.93225855 14.5589579,6.76781609 14.7715632,6.76781609 L16.8115812,6.76781609 Z" id="形状结合" fill="#BFC2CB" fill-rule="nonzero"></path>
            </g>
        </g>
    </g>
</svg>