<?xml version="1.0" encoding="UTF-8"?>
<svg width="34px" height="34px" viewBox="0 0 34 34" version="1.1" xmlns="http://www.w3.org/2000/svg" xmlns:xlink="http://www.w3.org/1999/xlink">
    <title>圆角-编辑</title>
    <defs>
        <path d="M25.1482249,8.86816635 L22.5218283,6.24176974 L21.20863,7.55496804 L23.8350266,10.1813647 L25.1482249,8.86816635 L25.1482249,8.86816635 Z M27.1180224,9.52476551 L23.8350266,12.8077613 L18.5822334,7.55496804 L21.8652291,4.27197227 C22.2278588,3.90934258 22.8157977,3.90934258 23.1784274,4.27197227 L27.1180224,8.2115672 C27.4806521,8.5741969 27.4806521,9.16213581 27.1180224,9.52476551 Z M4.92857143,28.1428571 L29.0714286,28.1428571 C29.5842644,28.1428571 30,28.5585927 30,29.0714286 C30,29.5842644 29.5842644,30 29.0714286,30 L4.92857143,30 C4.41573559,30 4,29.5842644 4,29.0714286 C4,28.5585927 4.41573559,28.1428571 4.92857143,28.1428571 Z M17.269035,8.86816635 L22.5218283,14.1209596 L12.0162418,24.626546 L6.81605907,25.6665826 C6.31318216,25.767158 5.82398741,25.4410282 5.72341203,24.9381512 C5.69936906,24.8179364 5.69936906,24.6941504 5.72341203,24.5739356 L6.76344858,19.3737528 L17.269035,8.86816635 Z M8.47425134,20.2893467 L7.81765219,23.5723424 L11.100648,22.9157433 L19.8954317,14.1209596 L17.269035,11.494563 L8.47425134,20.2893467 Z" id="path-1"></path>
    </defs>
    <g id="页面-1" stroke="none" stroke-width="1" fill="none" fill-rule="evenodd">
        <g id="我的-小智同学" transform="translate(-48.000000, -1557.000000)">
            <g id="编组-2" transform="translate(0.000000, 1523.000000)">
                <g id="编组" transform="translate(32.000000, 15.000000)">
                    <g id="圆角-编辑" transform="translate(16.000000, 19.000000)">
                        <rect id="Rectangle" x="0" y="0" width="34" height="34"></rect>
                        <mask id="mask-2" fill="white">
                            <use xlink:href="#path-1"></use>
                        </mask>
                        <use id="Shape" fill="#9EA1AE" xlink:href="#path-1"></use>
                    </g>
                </g>
            </g>
        </g>
    </g>
</svg>