<?xml version="1.0" encoding="UTF-8"?>
<svg width="44px" height="44px" viewBox="0 0 44 44" version="1.1" xmlns="http://www.w3.org/2000/svg" xmlns:xlink="http://www.w3.org/1999/xlink">
    <title>圆角-照相</title>
    <g id="页面-1" stroke="none" stroke-width="1" fill="none" fill-rule="evenodd">
        <g id="我的-用户反馈" transform="translate(-90.000000, -528.000000)">
            <g id="图片上传-/-未上传" transform="translate(32.000000, 470.000000)">
                <g id="圆角-照相" transform="translate(58.000000, 58.000000)">
                    <rect id="矩形" x="0" y="0" width="44" height="44"></rect>
                    <path d="M27.9833348,4.88888889 C28.3176879,4.88888889 28.6299193,5.05599002 28.8153851,5.33418869 L31.7777778,9.77777778 L40.5555556,9.77777778 C41.1078403,9.77777778 41.5555556,10.225493 41.5555556,10.7777778 L41.5555556,38.1111111 C41.5555556,38.6633959 41.1078403,39.1111111 40.5555556,39.1111111 L3.44444444,39.1111111 C2.89215969,39.1111111 2.44444444,38.6633959 2.44444444,38.1111111 L2.44444444,10.7777778 C2.44444444,10.225493 2.89215969,9.77777778 3.44444444,9.77777778 L12.2222222,9.77777778 L15.1846149,5.33418869 C15.3700807,5.05599002 15.6823121,4.88888889 16.0166652,4.88888889 L27.9833348,4.88888889 Z M22,14.6666667 C16.5998824,14.6666667 12.2222222,19.0443269 12.2222222,24.4444444 C12.2222222,29.844562 16.5998824,34.2222222 22,34.2222222 C27.4001176,34.2222222 31.7777778,29.844562 31.7777778,24.4444444 C31.7777778,19.0443269 27.4001176,14.6666667 22,14.6666667 Z M22,19.5555556 C24.7000588,19.5555556 26.8888889,21.7443857 26.8888889,24.4444444 C26.8888889,27.1445032 24.7000588,29.3333333 22,29.3333333 C19.2999412,29.3333333 17.1111111,27.1445032 17.1111111,24.4444444 C17.1111111,21.7443857 19.2999412,19.5555556 22,19.5555556 Z" id="Combined-Shape" fill="#DCDEE0"></path>
                </g>
            </g>
        </g>
    </g>
</svg>