<?xml version="1.0" encoding="UTF-8"?>
<svg width="32px" height="32px" viewBox="0 0 32 32" version="1.1" xmlns="http://www.w3.org/2000/svg" xmlns:xlink="http://www.w3.org/1999/xlink">
    <title>拉黑作者</title>
    <g id="页面-1" stroke="none" stroke-width="1" fill="none" fill-rule="evenodd">
        <g id="图标资源下载" transform="translate(-417.000000, -667.000000)">
            <g id="拉黑作者" transform="translate(417.000000, 667.000000)">
                <rect id="Rectangle-62" fill-opacity="0" fill="#FFFFFF" x="0" y="0" width="32" height="32"></rect>
                <path d="M24.5028571,32 C20.3885714,32 17.0057143,28.7111111 17.0057143,24.7111111 C17.0057143,20.7111111 20.3885714,17.4222222 24.5028571,17.4222222 C28.6171428,17.4222222 32,20.7111111 32,24.7111111 C32,28.7111111 28.6171429,32 24.5028571,32 Z M24.5028571,19.2888889 C23.04,19.2888889 21.5771429,19.8222222 20.5714286,20.8888889 C19.5657143,21.8666667 18.9257143,23.2888889 18.9257143,24.7111111 C18.9257143,25.7777778 19.2,26.7555556 19.84,27.6444444 L27.8857143,20.4444444 C26.88,19.7333333 25.6914286,19.2888889 24.5028571,19.2888889 Z M29.2571428,21.8666667 L21.12,29.0666667 C22.1257143,29.7777778 23.3142857,30.2222222 24.5028571,30.2222222 C25.9657143,30.2222222 27.4285714,29.6888889 28.4342857,28.6222222 C29.44,27.6444444 30.08,26.2222222 30.08,24.8 C30.08,23.6444444 29.8057143,22.6666667 29.2571428,21.8666667 Z M18.1942857,16.6222222 C18.4685714,16.7111111 18.6514286,16.8 18.9257143,16.8888889 L19.0171429,16.8888889 C19.4742857,16.8888889 19.7485715,17.1555555 19.9314286,17.5111111 C20.1142857,17.8666667 19.9314286,18.3111111 19.6571429,18.5777778 C19.3828572,18.8444444 18.9257143,18.8444444 18.56,18.6666667 C18.4685714,18.6666667 18.3771428,18.6666667 18.2857143,18.5777778 C17.0057143,18.1333333 15.1771429,17.6888889 13.7142857,17.6888889 C7.22285714,17.6888889 2.10285717,23.0222222 1.82857143,29.2444444 C1.82857143,29.7777778 1.64571428,30.1333333 0.914285732,30.1333333 C0.365714293,30.1333333 0,29.6888889 0,29.1555556 L0,29.0666667 C0.182857146,23.4666667 3.93142857,18.5777778 9.41714286,16.7111111 C6.49142858,15.2 4.48000001,12.2666667 4.48000001,8.8 C4.48000001,3.91111112 8.59428572,-3.55271368e-15 13.6228571,-3.55271368e-15 C18.6514285,-3.55271368e-15 22.7657143,3.91111112 22.8571428,8.8 C22.9485714,12.1777778 21.0285714,15.0222222 18.1942857,16.6222222 Z M13.7142857,1.77777778 C9.78285715,1.77777778 6.39999999,5.06666666 6.39999999,8.88888887 C6.39999999,12.7111111 9.78285712,16 13.7142857,16 C17.6457143,16 21.0285714,12.7111111 21.0285714,8.88888887 C21.0285714,5.06666662 17.6457143,1.77777778 13.7142857,1.77777778 Z" id="形状" fill="#BFC2CB" fill-rule="nonzero"></path>
            </g>
        </g>
    </g>
</svg>